<svg width="579" height="197" viewBox="0 0 579 197" fill="none" xmlns="http://www.w3.org/2000/svg">
<path d="M12.7292 154.825V8.36697H70.5114C81.6196 8.36697 91.0831 10.4885 98.9018 14.7316C106.721 18.927 112.68 24.7672 116.78 32.2522C120.928 39.6895 123.002 48.271 123.002 57.9967C123.002 67.7224 120.904 76.3039 116.708 83.7412C112.513 91.1785 106.434 96.971 98.4728 101.119C90.5587 105.266 80.976 107.34 69.7247 107.34H32.8958V82.5255H64.7188C70.6782 82.5255 75.5888 81.5005 79.4504 79.4504C83.3598 77.3527 86.268 74.4684 88.175 70.7974C90.1296 67.0788 91.107 62.8118 91.107 57.9967C91.107 53.1338 90.1296 48.8907 88.175 45.2674C86.268 41.5965 83.3598 38.7598 79.4504 36.7574C75.5411 34.7074 70.5829 33.6824 64.5758 33.6824H43.6942V154.825H12.7292ZM142.542 154.825V44.9814H172.077V64.1467H173.221C175.224 57.3292 178.585 52.1803 183.305 48.7C188.024 45.1721 193.459 43.4081 199.609 43.4081C201.135 43.4081 202.78 43.5035 204.544 43.6942C206.308 43.8849 207.857 44.1471 209.192 44.4808V71.5125C207.762 71.0835 205.783 70.7021 203.257 70.3683C200.73 70.0346 198.418 69.8678 196.32 69.8678C191.838 69.8678 187.834 70.8451 184.306 72.7998C180.825 74.7068 178.06 77.3766 176.01 80.8092C174.008 84.2418 173.007 88.1988 173.007 92.6803V154.825H142.542Z" fill="#F6FAFD"/>
<g clip-path="url(#clip0_234_2632)">
<rect x="235.655" y="33.9971" width="120.828" height="120.828" rx="60.4138" fill="#262D3F"/>
<path d="M321.065 73.5618L329.547 81.1948C337.258 88.1353 341.114 91.6056 341.114 96.0586C341.114 100.512 337.258 103.982 329.547 110.922L321.065 118.555" stroke="#F6FAFD" stroke-width="5.03448" stroke-linecap="round"/>
<path d="M306.002 59.416L296.069 96.4849L286.137 133.554" stroke="#F6FAFD" stroke-width="5.03448" stroke-linecap="round"/>
<path d="M271.073 73.5618L262.591 81.1948C254.88 88.1353 251.024 91.6056 251.024 96.0586C251.024 100.512 254.88 103.982 262.591 110.922L271.073 118.555" stroke="#F6FAFD" stroke-width="5.03448" stroke-linecap="round"/>
</g>
<path d="M391.295 44.9814H421.759V160.26C421.759 168.746 420.091 175.611 416.754 180.855C413.416 186.099 408.625 189.937 402.38 192.369C396.182 194.8 388.768 196.016 380.139 196.016C379.09 196.016 378.089 195.992 377.136 195.944C376.134 195.944 375.086 195.921 373.989 195.873V172.059C374.8 172.107 375.515 172.131 376.134 172.131C376.707 172.178 377.326 172.202 377.994 172.202C382.904 172.202 386.337 171.153 388.292 169.056C390.294 167.006 391.295 163.907 391.295 159.759V44.9814ZM406.456 30.8219C401.974 30.8219 398.113 29.3201 394.871 26.3166C391.629 23.2654 390.008 19.6183 390.008 15.3752C390.008 11.1798 391.629 7.58033 394.871 4.57681C398.113 1.5256 401.974 -3.31432e-06 406.456 -3.31432e-06C411.033 -3.31432e-06 414.918 1.5256 418.112 4.57681C421.354 7.58033 422.975 11.1798 422.975 15.3752C422.975 19.6183 421.354 23.2654 418.112 26.3166C414.918 29.3201 411.033 30.8219 406.456 30.8219ZM475.769 8.36697L505.304 58.2827H506.448L536.126 8.36697H571.095L526.4 81.5958L572.097 154.825H536.483L506.448 104.837H505.304L475.269 154.825H439.798L485.638 81.5958L440.657 8.36697H475.769Z" fill="#F6FAFD"/>
<defs>
<clipPath id="clip0_234_2632">
<rect x="235.655" y="33.9971" width="120.828" height="120.828" rx="60.4138" fill="white"/>
</clipPath>
</defs>
</svg>
